<svg width="20" height="20" viewBox="0 0 20 20" fill="none" xmlns="http://www.w3.org/2000/svg">
<path d="M9.07069 0.948769C9.41444 0.13231 10.5852 0.132311 10.9289 0.948771L12.9577 5.76766C13.1027 6.11186 13.4304 6.34704 13.8065 6.37683L19.0725 6.7939C19.9647 6.86457 20.3265 7.96456 19.6467 8.53983L15.6346 11.9351C15.348 12.1776 15.2228 12.5582 15.3104 12.9208L16.5361 17.9974C16.7438 18.8575 15.7967 19.5374 15.0328 19.0765L10.5244 16.356C10.2023 16.1616 9.79732 16.1616 9.47529 16.356L4.96681 19.0765C4.20293 19.5374 3.25577 18.8575 3.46345 17.9974L4.68924 12.9208C4.77679 12.5582 4.65164 12.1776 4.36507 11.9351L0.352879 8.53983C-0.326901 7.96456 0.0348848 6.86457 0.927108 6.7939L6.19317 6.37683C6.56932 6.34704 6.89697 6.11186 7.04188 5.76766L9.07069 0.948769Z" fill="black"/>
</svg>
